<svg xmlns="http://www.w3.org/2000/svg" viewBox="25 60 390 408" width="390" height="408" role="img"><line x1="177.2" y1="100.2" x2="70.0" y2="330.0" stroke="#1b1f24" stroke-width="2.2" stroke-linecap="round"/><line x1="70.0" y1="330.0" x2="370.0" y2="330.0" stroke="#1b1f24" stroke-width="2.2" stroke-linecap="round"/><line x1="370.0" y1="330.0" x2="177.2" y2="100.2" stroke="#1b1f24" stroke-width="2.2" stroke-linecap="round"/><line x1="370.0" y1="330.0" x2="236.7" y2="308.7" stroke="#1b1f24" stroke-width="2.2" stroke-linecap="round"/><line x1="370.0" y1="330.0" x2="268.0" y2="418.4" stroke="#1b1f24" stroke-width="2.2" stroke-linecap="round"/><line x1="177.2" y1="100.2" x2="268.0" y2="418.4" stroke="#1b1f24" stroke-width="2.2" stroke-linecap="round"/><line x1="70.0" y1="330.0" x2="268.0" y2="418.4" stroke="#1b1f24" stroke-width="2.2" stroke-linecap="round"/><line x1="278.9" y1="210.6" x2="268.2" y2="219.6" stroke="#1b1f24" stroke-width="2"/><line x1="220.0" y1="323.0" x2="220.0" y2="337.0" stroke="#1b1f24" stroke-width="2"/><line x1="117.2" y1="212.1" x2="129.9" y2="218.1" stroke="#1b1f24" stroke-width="2"/><line x1="307.9" y1="313.0" x2="305.7" y2="326.8" stroke="#1b1f24" stroke-width="2"/><line x1="301.0" y1="311.9" x2="298.8" y2="325.7" stroke="#1b1f24" stroke-width="2"/><line x1="317.1" y1="366.6" x2="326.2" y2="377.2" stroke="#1b1f24" stroke-width="2"/><line x1="311.8" y1="371.2" x2="320.9" y2="381.8" stroke="#1b1f24" stroke-width="2"/><line x1="244.7" y1="362.1" x2="258.1" y2="358.3" stroke="#1b1f24" stroke-width="2"/><line x1="246.6" y1="368.9" x2="260.0" y2="365.0" stroke="#1b1f24" stroke-width="2"/><path d="M 244.3 407.8 A 26 26 0 0 1 287.7 401.4" fill="none" stroke="#c2410c" stroke-width="2.5"/><circle cx="177.2" cy="100.2" r="3.4" fill="#1b1f24"/><circle cx="70.0" cy="330.0" r="3.4" fill="#1b1f24"/><circle cx="370.0" cy="330.0" r="3.4" fill="#1b1f24"/><circle cx="236.7" cy="308.7" r="3.4" fill="#1b1f24"/><circle cx="268.0" cy="418.4" r="3.4" fill="#1b1f24"/><circle cx="242.8" cy="330.0" r="3.4" fill="#1b1f24"/><text x="169.2" y="86.2" font-family="Times New Roman,serif" font-size="26" font-style="italic" fill="#1b1f24">A</text><text x="40.0" y="338.0" font-family="Times New Roman,serif" font-size="26" font-style="italic" fill="#1b1f24">B</text><text x="382.0" y="338.0" font-family="Times New Roman,serif" font-size="26" font-style="italic" fill="#1b1f24">C</text><text x="206.7" y="300.7" font-family="Times New Roman,serif" font-size="26" font-style="italic" fill="#1b1f24">D</text><text x="262.0" y="452.4" font-family="Times New Roman,serif" font-size="26" font-style="italic" fill="#1b1f24">E</text><text x="216.8" y="354.0" font-family="Times New Roman,serif" font-size="26" font-style="italic" fill="#1b1f24">P</text></svg>