<svg xmlns="http://www.w3.org/2000/svg" viewBox="-5 54 465 286" width="465" height="286" role="img"><line x1="40.0" y1="300.0" x2="420.0" y2="300.0" stroke="#1b1f24" stroke-width="2.2" stroke-linecap="round"/><line x1="40.0" y1="300.0" x2="111.3" y2="176.6" stroke="#1b1f24" stroke-width="2.2" stroke-linecap="round"/><line x1="111.3" y1="176.6" x2="182.5" y2="300.0" stroke="#1b1f24" stroke-width="2.2" stroke-linecap="round"/><line x1="182.5" y1="300.0" x2="301.2" y2="94.3" stroke="#1b1f24" stroke-width="2.2" stroke-linecap="round"/><line x1="301.2" y1="94.3" x2="420.0" y2="300.0" stroke="#1b1f24" stroke-width="2.2" stroke-linecap="round"/><line x1="40.0" y1="300.0" x2="301.2" y2="94.3" stroke="#1b1f24" stroke-width="2.2" stroke-linecap="round"/><line x1="420.0" y1="300.0" x2="111.3" y2="176.6" stroke="#1b1f24" stroke-width="2.2" stroke-linecap="round"/><line x1="111.2" y1="293.0" x2="111.2" y2="307.0" stroke="#1b1f24" stroke-width="2"/><line x1="152.9" y1="234.8" x2="140.8" y2="241.8" stroke="#1b1f24" stroke-width="2"/><line x1="246.2" y1="203.7" x2="234.1" y2="196.7" stroke="#1b1f24" stroke-width="2"/><line x1="249.7" y1="197.6" x2="237.6" y2="190.6" stroke="#1b1f24" stroke-width="2"/><line x1="297.8" y1="307.0" x2="297.8" y2="293.0" stroke="#1b1f24" stroke-width="2"/><line x1="304.8" y1="307.0" x2="304.8" y2="293.0" stroke="#1b1f24" stroke-width="2"/><path d="M 149.1 214.1 A 24 24 0 0 1 145.7 190.4" fill="none" stroke="#c2410c" stroke-width="2.5"/><circle cx="40.0" cy="300.0" r="3.4" fill="#1b1f24"/><circle cx="420.0" cy="300.0" r="3.4" fill="#1b1f24"/><circle cx="182.5" cy="300.0" r="3.4" fill="#1b1f24"/><circle cx="111.3" cy="176.6" r="3.4" fill="#1b1f24"/><circle cx="301.2" cy="94.3" r="3.4" fill="#1b1f24"/><circle cx="168.0" cy="199.3" r="3.4" fill="#1b1f24"/><text x="12.0" y="322.0" font-family="Times New Roman,serif" font-size="26" font-style="italic" fill="#1b1f24">A</text><text x="430.0" y="322.0" font-family="Times New Roman,serif" font-size="26" font-style="italic" fill="#1b1f24">B</text><text x="174.5" y="326.0" font-family="Times New Roman,serif" font-size="26" font-style="italic" fill="#1b1f24">C</text><text x="83.3" y="168.6" font-family="Times New Roman,serif" font-size="26" font-style="italic" fill="#1b1f24">D</text><text x="311.2" y="86.3" font-family="Times New Roman,serif" font-size="26" font-style="italic" fill="#1b1f24">E</text><text x="162.0" y="187.3" font-family="Times New Roman,serif" font-size="26" font-style="italic" fill="#1b1f24">P</text></svg>