<svg xmlns="http://www.w3.org/2000/svg" viewBox="25 -10 390 449" width="390" height="449" role="img"><line x1="370.0" y1="30.0" x2="70.0" y2="330.0" stroke="#1b1f24" stroke-width="2.2" stroke-linecap="round"/><line x1="70.0" y1="330.0" x2="370.0" y2="330.0" stroke="#1b1f24" stroke-width="2.2" stroke-linecap="round"/><line x1="370.0" y1="330.0" x2="370.0" y2="30.0" stroke="#1b1f24" stroke-width="2.2" stroke-linecap="round"/><line x1="370.0" y1="330.0" x2="311.4" y2="218.5" stroke="#1b1f24" stroke-width="2.2" stroke-linecap="round"/><line x1="370.0" y1="330.0" x2="258.5" y2="388.6" stroke="#1b1f24" stroke-width="2.2" stroke-linecap="round"/><line x1="370.0" y1="30.0" x2="258.5" y2="388.6" stroke="#1b1f24" stroke-width="2.2" stroke-linecap="round"/><line x1="70.0" y1="330.0" x2="258.5" y2="388.6" stroke="#1b1f24" stroke-width="2.2" stroke-linecap="round"/><line x1="377.0" y1="180.0" x2="363.0" y2="180.0" stroke="#1b1f24" stroke-width="2"/><line x1="220.0" y1="323.0" x2="220.0" y2="337.0" stroke="#1b1f24" stroke-width="2"/><line x1="215.1" y1="175.1" x2="224.9" y2="184.9" stroke="#1b1f24" stroke-width="2"/><line x1="348.5" y1="274.1" x2="336.1" y2="280.6" stroke="#1b1f24" stroke-width="2"/><line x1="345.3" y1="267.9" x2="332.9" y2="274.4" stroke="#1b1f24" stroke-width="2"/><line x1="314.1" y1="351.5" x2="320.6" y2="363.9" stroke="#1b1f24" stroke-width="2"/><line x1="307.9" y1="354.7" x2="314.4" y2="367.1" stroke="#1b1f24" stroke-width="2"/><line x1="279.3" y1="298.1" x2="292.6" y2="302.3" stroke="#1b1f24" stroke-width="2"/><line x1="277.2" y1="304.8" x2="290.6" y2="309.0" stroke="#1b1f24" stroke-width="2"/><path d="M 233.6 380.9 A 26 26 0 0 1 281.5 376.5" fill="none" stroke="#c2410c" stroke-width="2.5"/><circle cx="370.0" cy="30.0" r="3.4" fill="#1b1f24"/><circle cx="70.0" cy="330.0" r="3.4" fill="#1b1f24"/><circle cx="370.0" cy="330.0" r="3.4" fill="#1b1f24"/><circle cx="311.4" cy="218.5" r="3.4" fill="#1b1f24"/><circle cx="258.5" cy="388.6" r="3.4" fill="#1b1f24"/><circle cx="276.7" cy="330.0" r="3.4" fill="#1b1f24"/><text x="362.0" y="16.0" font-family="Times New Roman,serif" font-size="26" font-style="italic" fill="#1b1f24">A</text><text x="40.0" y="338.0" font-family="Times New Roman,serif" font-size="26" font-style="italic" fill="#1b1f24">B</text><text x="382.0" y="338.0" font-family="Times New Roman,serif" font-size="26" font-style="italic" fill="#1b1f24">C</text><text x="281.4" y="210.5" font-family="Times New Roman,serif" font-size="26" font-style="italic" fill="#1b1f24">D</text><text x="252.5" y="422.6" font-family="Times New Roman,serif" font-size="26" font-style="italic" fill="#1b1f24">E</text><text x="250.7" y="354.0" font-family="Times New Roman,serif" font-size="26" font-style="italic" fill="#1b1f24">P</text></svg>