<svg xmlns="http://www.w3.org/2000/svg" viewBox="-5 78 465 262" width="465" height="262" role="img"><line x1="40.0" y1="300.0" x2="420.0" y2="300.0" stroke="#1b1f24" stroke-width="2.2" stroke-linecap="round"/><line x1="40.0" y1="300.0" x2="90.9" y2="190.8" stroke="#1b1f24" stroke-width="2.2" stroke-linecap="round"/><line x1="90.9" y1="190.8" x2="182.5" y2="300.0" stroke="#1b1f24" stroke-width="2.2" stroke-linecap="round"/><line x1="182.5" y1="300.0" x2="335.2" y2="118.1" stroke="#1b1f24" stroke-width="2.2" stroke-linecap="round"/><line x1="335.2" y1="118.1" x2="420.0" y2="300.0" stroke="#1b1f24" stroke-width="2.2" stroke-linecap="round"/><line x1="40.0" y1="300.0" x2="335.2" y2="118.1" stroke="#1b1f24" stroke-width="2.2" stroke-linecap="round"/><line x1="420.0" y1="300.0" x2="90.9" y2="190.8" stroke="#1b1f24" stroke-width="2.2" stroke-linecap="round"/><line x1="111.2" y1="293.0" x2="111.2" y2="307.0" stroke="#1b1f24" stroke-width="2"/><line x1="142.1" y1="240.9" x2="131.3" y2="249.9" stroke="#1b1f24" stroke-width="2"/><line x1="261.9" y1="216.2" x2="251.2" y2="207.2" stroke="#1b1f24" stroke-width="2"/><line x1="266.4" y1="210.9" x2="255.7" y2="201.9" stroke="#1b1f24" stroke-width="2"/><line x1="297.8" y1="307.0" x2="297.8" y2="293.0" stroke="#1b1f24" stroke-width="2"/><line x1="304.8" y1="307.0" x2="304.8" y2="293.0" stroke="#1b1f24" stroke-width="2"/><path d="M 152.5 230.6 A 24 24 0 0 0 195.7 225.6" fill="none" stroke="#c2410c" stroke-width="2.5"/><circle cx="40.0" cy="300.0" r="3.4" fill="#1b1f24"/><circle cx="420.0" cy="300.0" r="3.4" fill="#1b1f24"/><circle cx="182.5" cy="300.0" r="3.4" fill="#1b1f24"/><circle cx="90.9" cy="190.8" r="3.4" fill="#1b1f24"/><circle cx="335.2" cy="118.1" r="3.4" fill="#1b1f24"/><circle cx="172.9" cy="218.1" r="3.4" fill="#1b1f24"/><text x="12.0" y="322.0" font-family="Times New Roman,serif" font-size="26" font-style="italic" fill="#1b1f24">A</text><text x="430.0" y="322.0" font-family="Times New Roman,serif" font-size="26" font-style="italic" fill="#1b1f24">B</text><text x="174.5" y="326.0" font-family="Times New Roman,serif" font-size="26" font-style="italic" fill="#1b1f24">C</text><text x="62.9" y="182.8" font-family="Times New Roman,serif" font-size="26" font-style="italic" fill="#1b1f24">D</text><text x="345.2" y="110.1" font-family="Times New Roman,serif" font-size="26" font-style="italic" fill="#1b1f24">E</text><text x="166.9" y="206.1" font-family="Times New Roman,serif" font-size="26" font-style="italic" fill="#1b1f24">P</text></svg>