<svg xmlns="http://www.w3.org/2000/svg" viewBox="25 -5 390 453" width="390" height="453" role="img"><line x1="317.9" y1="34.6" x2="70.0" y2="330.0" stroke="#1b1f24" stroke-width="2.2" stroke-linecap="round"/><line x1="70.0" y1="330.0" x2="370.0" y2="330.0" stroke="#1b1f24" stroke-width="2.2" stroke-linecap="round"/><line x1="370.0" y1="330.0" x2="317.9" y2="34.6" stroke="#1b1f24" stroke-width="2.2" stroke-linecap="round"/><line x1="370.0" y1="330.0" x2="283.5" y2="226.3" stroke="#1b1f24" stroke-width="2.2" stroke-linecap="round"/><line x1="370.0" y1="330.0" x2="252.9" y2="397.2" stroke="#1b1f24" stroke-width="2.2" stroke-linecap="round"/><line x1="317.9" y1="34.6" x2="252.9" y2="397.2" stroke="#1b1f24" stroke-width="2.2" stroke-linecap="round"/><line x1="70.0" y1="330.0" x2="252.9" y2="397.2" stroke="#1b1f24" stroke-width="2.2" stroke-linecap="round"/><line x1="350.8" y1="181.1" x2="337.1" y2="183.5" stroke="#1b1f24" stroke-width="2"/><line x1="220.0" y1="323.0" x2="220.0" y2="337.0" stroke="#1b1f24" stroke-width="2"/><line x1="188.6" y1="177.8" x2="199.3" y2="186.8" stroke="#1b1f24" stroke-width="2"/><line x1="334.4" y1="276.4" x2="323.6" y2="285.3" stroke="#1b1f24" stroke-width="2"/><line x1="329.9" y1="271.0" x2="319.1" y2="280.0" stroke="#1b1f24" stroke-width="2"/><line x1="311.0" y1="355.8" x2="318.0" y2="367.9" stroke="#1b1f24" stroke-width="2"/><line x1="304.9" y1="359.3" x2="311.9" y2="371.4" stroke="#1b1f24" stroke-width="2"/><line x1="261.9" y1="307.1" x2="275.7" y2="309.5" stroke="#1b1f24" stroke-width="2"/><line x1="260.7" y1="314.0" x2="274.5" y2="316.4" stroke="#1b1f24" stroke-width="2"/><path d="M 228.5 388.2 A 26 26 0 0 1 275.4 384.2" fill="none" stroke="#c2410c" stroke-width="2.5"/><circle cx="317.9" cy="34.6" r="3.4" fill="#1b1f24"/><circle cx="70.0" cy="330.0" r="3.4" fill="#1b1f24"/><circle cx="370.0" cy="330.0" r="3.4" fill="#1b1f24"/><circle cx="283.5" cy="226.3" r="3.4" fill="#1b1f24"/><circle cx="252.9" cy="397.2" r="3.4" fill="#1b1f24"/><circle cx="264.9" cy="330.0" r="3.4" fill="#1b1f24"/><text x="309.9" y="20.6" font-family="Times New Roman,serif" font-size="26" font-style="italic" fill="#1b1f24">A</text><text x="40.0" y="338.0" font-family="Times New Roman,serif" font-size="26" font-style="italic" fill="#1b1f24">B</text><text x="382.0" y="338.0" font-family="Times New Roman,serif" font-size="26" font-style="italic" fill="#1b1f24">C</text><text x="253.5" y="218.3" font-family="Times New Roman,serif" font-size="26" font-style="italic" fill="#1b1f24">D</text><text x="246.9" y="431.2" font-family="Times New Roman,serif" font-size="26" font-style="italic" fill="#1b1f24">E</text><text x="238.9" y="354.0" font-family="Times New Roman,serif" font-size="26" font-style="italic" fill="#1b1f24">P</text></svg>