<svg xmlns="http://www.w3.org/2000/svg" viewBox="-5 124 465 216" width="465" height="216" role="img"><line x1="40.0" y1="300.0" x2="420.0" y2="300.0" stroke="#1b1f24" stroke-width="2.2" stroke-linecap="round"/><line x1="40.0" y1="300.0" x2="65.8" y2="218.3" stroke="#1b1f24" stroke-width="2.2" stroke-linecap="round"/><line x1="65.8" y1="218.3" x2="182.5" y2="300.0" stroke="#1b1f24" stroke-width="2.2" stroke-linecap="round"/><line x1="182.5" y1="300.0" x2="377.0" y2="163.8" stroke="#1b1f24" stroke-width="2.2" stroke-linecap="round"/><line x1="377.0" y1="163.8" x2="420.0" y2="300.0" stroke="#1b1f24" stroke-width="2.2" stroke-linecap="round"/><line x1="40.0" y1="300.0" x2="377.0" y2="163.8" stroke="#1b1f24" stroke-width="2.2" stroke-linecap="round"/><line x1="420.0" y1="300.0" x2="65.8" y2="218.3" stroke="#1b1f24" stroke-width="2.2" stroke-linecap="round"/><line x1="111.2" y1="293.0" x2="111.2" y2="307.0" stroke="#1b1f24" stroke-width="2"/><line x1="128.2" y1="253.4" x2="120.1" y2="264.9" stroke="#1b1f24" stroke-width="2"/><line x1="280.9" y1="239.6" x2="272.9" y2="228.2" stroke="#1b1f24" stroke-width="2"/><line x1="286.7" y1="235.6" x2="278.6" y2="224.1" stroke="#1b1f24" stroke-width="2"/><line x1="297.8" y1="307.0" x2="297.8" y2="293.0" stroke="#1b1f24" stroke-width="2"/><line x1="304.8" y1="307.0" x2="304.8" y2="293.0" stroke="#1b1f24" stroke-width="2"/><path d="M 155.8 253.2 A 24 24 0 0 0 201.5 249.6" fill="none" stroke="#c2410c" stroke-width="2.5"/><circle cx="40.0" cy="300.0" r="3.4" fill="#1b1f24"/><circle cx="420.0" cy="300.0" r="3.4" fill="#1b1f24"/><circle cx="182.5" cy="300.0" r="3.4" fill="#1b1f24"/><circle cx="65.8" cy="218.3" r="3.4" fill="#1b1f24"/><circle cx="377.0" cy="163.8" r="3.4" fill="#1b1f24"/><circle cx="178.1" cy="244.2" r="3.4" fill="#1b1f24"/><text x="12.0" y="322.0" font-family="Times New Roman,serif" font-size="26" font-style="italic" fill="#1b1f24">A</text><text x="430.0" y="322.0" font-family="Times New Roman,serif" font-size="26" font-style="italic" fill="#1b1f24">B</text><text x="174.5" y="326.0" font-family="Times New Roman,serif" font-size="26" font-style="italic" fill="#1b1f24">C</text><text x="37.8" y="210.3" font-family="Times New Roman,serif" font-size="26" font-style="italic" fill="#1b1f24">D</text><text x="387.0" y="155.8" font-family="Times New Roman,serif" font-size="26" font-style="italic" fill="#1b1f24">E</text><text x="172.1" y="232.2" font-family="Times New Roman,serif" font-size="26" font-style="italic" fill="#1b1f24">P</text></svg>